<svg width="1200" height="700" viewBox="0 0 1200 700" fill="none" xmlns="http://www.w3.org/2000/svg">
  <defs>
    <linearGradient id="bg" x1="0" y1="0" x2="1200" y2="700" gradientUnits="userSpaceOnUse">
      <stop stop-color="#101225"/>
      <stop offset="1" stop-color="#0A1730"/>
    </linearGradient>
  </defs>
  <rect width="1200" height="700" fill="url(#bg)"/>
  <circle cx="600" cy="165" r="120" fill="#4D5A85" fill-opacity="0.25"/>
  <rect x="525" y="120" width="150" height="90" rx="10" fill="#182443" stroke="#9AA3C0" stroke-width="5"/>
  <rect x="560" y="220" width="80" height="16" rx="8" fill="#9AA3C0"/>
  <text x="510" y="285" fill="#E4E9F9" font-size="48" font-family="Segoe UI, Arial" font-weight="700">Cyber attacks</text>

  <g stroke="#67708A" stroke-width="18" stroke-linecap="round">
    <path d="M240 390L430 300"/>
    <path d="M430 390L530 300"/>
    <path d="M600 390V300"/>
    <path d="M770 390L670 300"/>
    <path d="M970 390L780 300"/>
  </g>

  <g fill="#12A37D" font-family="Segoe UI, Arial" font-weight="700" font-size="42">
    <text x="130" y="540">Charging</text>
    <text x="340" y="540">Keyless</text>
    <text x="560" y="540">V2X</text>
    <text x="770" y="540">App platform</text>
    <text x="1010" y="540">Smartphone</text>
  </g>

  <rect x="430" y="585" width="340" height="70" rx="35" fill="#0FA37E"/>
  <circle cx="500" cy="655" r="28" fill="#0FA37E"/>
  <circle cx="700" cy="655" r="28" fill="#0FA37E"/>
  <text x="445" y="632" fill="#E9FFF9" font-size="34" font-family="Segoe UI, Arial" font-weight="700">Connected Car</text>
</svg>
