<svg width="1200" height="700" viewBox="0 0 1200 700" fill="none" xmlns="http://www.w3.org/2000/svg">
  <defs>
    <linearGradient id="bg" x1="140" y1="60" x2="1080" y2="650" gradientUnits="userSpaceOnUse">
      <stop stop-color="#1A1034"/>
      <stop offset="1" stop-color="#060B1D"/>
    </linearGradient>
    <linearGradient id="shield" x1="520" y1="190" x2="700" y2="450" gradientUnits="userSpaceOnUse">
      <stop stop-color="#68E1FF"/>
      <stop offset="1" stop-color="#7863FF"/>
    </linearGradient>
  </defs>
  <rect width="1200" height="700" fill="url(#bg)"/>
  <circle cx="990" cy="560" r="220" fill="#5BE0FF" fill-opacity="0.1"/>
  <circle cx="180" cy="120" r="170" fill="#8867FF" fill-opacity="0.16"/>

  <g>
    <path d="M600 170L720 220V330C720 418 667 487 600 520C533 487 480 418 480 330V220L600 170Z" fill="url(#shield)" fill-opacity="0.24" stroke="#A6C3FF" stroke-width="4"/>
    <rect x="555" y="285" width="90" height="90" rx="16" fill="#0D1A3E" stroke="#8FC8FF"/>
    <path d="M575 286V260C575 246 586 235 600 235C614 235 625 246 625 260V286" stroke="#8FC8FF" stroke-width="8" stroke-linecap="round"/>
  </g>

  <g stroke="#7F9DFF" stroke-opacity="0.65" stroke-width="3">
    <path d="M130 560H1070"/>
    <path d="M130 520H1070"/>
    <path d="M130 480H1070"/>
    <path d="M220 420V620"/>
    <path d="M380 420V620"/>
    <path d="M820 420V620"/>
    <path d="M980 420V620"/>
  </g>

  <text x="88" y="92" fill="#DCE6FF" font-family="Segoe UI, Arial, sans-serif" font-size="36" font-weight="700">Cybersécurité et IA embarquee</text>
  <text x="88" y="136" fill="#A6BCFF" font-family="Segoe UI, Arial, sans-serif" font-size="24">ISO 21434, UNECE R155, Zero Trust et detection d'anomalies</text>
</svg>
